<svg xmlns="http://www.w3.org/2000/svg" height="48" viewBox="0 96 960 960" width="48"><path d="M333 843q-11 6-23 2t-17-15L53 350q-5-11-1.5-23.5T66 309q11-5 23.5-1.5T107 322l240 480q5 11 1 23t-15 18Zm187 0q-11 6-23 2t-17-15L240 350q-5-11-1.5-23.5T253 309q11-5 23-1.5t17 14.5l241 480q5 11 1 23t-15 18Zm374 0q-11 5-23.5 1T853 829L613 349q-5-11-1-23t15-17q11-5 23-1.5t17 14.5l240 480q5 11 1.5 23.5T894 843Zm-187-1q-11 6-23 2t-17-15L427 349q-5-11-1.5-23t14.5-17q11-5 23-1.5t17 14.5l241 480q5 11 1 22.5T707 842Z"/></svg>